<svg xmlns="http://www.w3.org/2000/svg" viewBox="0 0 20 20">
  <title>Artboard 234</title>
  <g id="body">
    <path d="M0,4.35a1.13,1.13,0,0,1,.1-.49,1.09,1.09,0,0,1,.27-.4,1.05,1.05,0,0,1,.39-.27,1.13,1.13,0,0,1,.49-.1h9.69A1.44,1.44,0,0,0,11.47,3a2.22,2.22,0,0,0,.43-.23,3.79,3.79,0,0,0,.39-.31,2.52,2.52,0,0,1,.45-.3,2.74,2.74,0,0,1,1.32-.33h4.69a1.3,1.3,0,0,1,.49.1,1.36,1.36,0,0,1,.39.27,1.18,1.18,0,0,1,.27.4,1.13,1.13,0,0,1,.1.49V18.17H0ZM18.75,16.91V5.6H14.06a2.75,2.75,0,0,1-.75-.09,2.71,2.71,0,0,1-.57-.23,2.52,2.52,0,0,1-.45-.3,2.79,2.79,0,0,0-.39-.31,2.22,2.22,0,0,0-.43-.23,1.44,1.44,0,0,0-.53-.09H1.25V16.91ZM14.06,3.09a2.48,2.48,0,0,0-.41,0,1.79,1.79,0,0,0-.32.13,2.51,2.51,0,0,0-.29.2l-.31.26L13,4l.29.2a1.75,1.75,0,0,0,.32.12,1.7,1.7,0,0,0,.41,0h4.69V3.09Z" style="fill: #323130"/>
  </g>
</svg>
